<?xml version="1.0" encoding="UTF-8"?>
<svg width="400px" height="400px" viewBox="0 0 400 400" version="1.1" xmlns="http://www.w3.org/2000/svg" xmlns:xlink="http://www.w3.org/1999/xlink">
    <title>home</title>
    <g id="home" stroke="none" stroke-width="1" fill="none" fill-rule="evenodd">
        <rect id="Rectangle" fill="#6F72AF" x="0" y="205" width="270" height="20" rx="10"></rect>
        <path d="M109,198 C104.357864,198 101,194.642136 101,191 L101,176 C101,171.357864 104.357864,168 108,168 L112,168 L112,165 C112,163.895431 112.895431,163 114,163 L140,163 C141.104569,163 142,163.895431 142,165 L142,198 C142,200.761424 139.761424,203 137,203 L117,203 C114.238576,203 112,200.761424 112,198 L109,198 Z M112,173 L109,173 C107.119288,173 106,174.119288 106,176 L106,191 C106,191.880712 107.119288,193 109,193 L112,193 L112,173 Z" id="Combined-Shape" fill="#D53880" fill-rule="nonzero"></path>
        <path d="M85,134 C90.5228475,134 95,138.477153 95,144 L95,176 C95,181.522847 90.5228475,186 85,186 L80,186 L80,198 C80,200.761424 77.7614237,203 75,203 L40,203 C37.2385763,203 35,200.761424 35,198 L35,163 L28.89405,137.703922 C28.5052849,136.093323 29.4957765,134.472519 31.1063751,134.083753 C31.336881,134.028114 31.5731707,134 31.8102967,134 L85,134 Z M84,141 L80,141 L80,179 L84,179 C86.209139,179 88,177.209139 88,175 L88,145 C88,142.790861 86.209139,141 84,141 Z" id="Combined-Shape" fill="#D4351C"></path>
        <path d="M164.578263,129.670878 C167.797598,128.885674 171.043918,130.858928 171.829122,134.078263 L185.712,191 L231,191 C234.238397,191 236.877572,193.565575 236.995862,196.775062 L237,197 C237,200.313708 234.313708,203 231,203 L184.141648,203 C179.531536,203 175.51884,199.84838 174.426445,195.369562 L160.170878,136.921737 C159.385674,133.702402 161.358928,130.456082 164.578263,129.670878 Z" id="Path-16" fill="#979797" fill-rule="nonzero"></path>
        <path d="M385,140 C390.522847,140 395,144.477153 395,150 L395,255 C395,277.09139 377.09139,295 355,295 L270,295 C264.477153,295 260,290.522847 260,285 C260,279.477153 264.477153,275 270,275 L355,275 C366.045695,275 375,266.045695 375,255 L375,150 C375,144.477153 379.477153,140 385,140 Z" id="Path-17" fill="#6F72AF" fill-rule="nonzero"></path>
        <path d="M72,278.828427 C72.530433,278.828427 73.0391408,279.039141 73.4142136,279.414214 L80,286 C82,284 84.4546962,283 87.3640885,283 C90.2734809,283 92.8187847,284 95,286 L101.585786,279.414214 C102.366835,278.633165 103.633165,278.633165 104.414214,279.414214 C104.789286,279.789286 105,280.297994 105,280.828427 L105,303 C105,307 102.263436,310.666667 96.790308,314 C107.935585,314.249878 116.700315,320.583211 123.084499,333 C126.070082,338.806748 126.762653,350.473257 125.162212,367.999527 L147,368 C149.761424,368 152,370.238576 152,373 C152,375.761424 149.761424,378 147,378 L67,378 C64.2385763,378 62,375.761424 62,373 C62,370.238576 64.2385763,368 67,368 L69.999,367.999427 L70,280.828427 C70,279.723858 70.8954305,278.828427 72,278.828427 Z" id="Combined-Shape" fill="#0B0C0C"></path>
        <circle id="Oval" fill="#F47738" cx="290" cy="80" r="35"></circle>
        <circle id="Oval" fill="#F47738" cx="308" cy="39" r="15"></circle>
        <rect id="Rectangle" fill="#D9510C" x="226" y="258" width="29" height="120" rx="14.5"></rect>
        <path d="M275.514194,157.002505 L286.5,231.5 L286.5,231.5 L253.016371,231.5 C239.675278,231.5 227.937074,240.310059 224.210512,253.120114 L194.740844,354.422098 C192.386562,362.514942 196.950403,371.001849 205,373.5 C213.040604,375.99536 221.594447,371.569162 224.201598,363.564108 L255,269 L255,269 L326.237845,269 C345.015527,269 360.237845,253.777681 360.237845,235 C360.237845,232.954001 360.053165,230.912178 359.686051,228.899384 L344.167046,143.812424 C340.794486,125.321491 323.070622,113.065628 304.579688,116.438188 C304.469691,116.45825 304.359794,116.478854 304.25,116.5 C285.375731,120.135044 272.710068,137.987025 275.514194,157.002505 Z" id="Path-20" fill="#F47738"></path>
        <path d="M306,135 C309.58142,128.558001 317.177651,126.226913 323,129 C329.439012,132.671906 331.782578,140.227695 329,146 C315.113178,171.603827 302.667393,187.678731 290,195 C277.252975,201.979486 257.123267,204.204212 229,202 C221.837939,201.969837 216.585261,196.034663 217,189 C217.46635,182.268245 223.433291,177.043532 230,177 C254.223972,178.993292 270.253318,177.221736 278,173 C285.0033,168.921886 294.989519,156.023743 306,135 Z" id="Path-19" fill="#D9510C" fill-rule="nonzero"></path>
        <circle id="Oval" fill="#5694CA" opacity="0.248116629" cx="117.5" cy="73.5" r="22.5"></circle>
        <circle id="Oval" fill="#5694CA" opacity="0.247093564" cx="153.5" cy="57.5" r="37.5"></circle>
        <circle id="Oval" fill="#5694CA" opacity="0.248116629" cx="200" cy="46" r="30"></circle>
        <circle id="Oval" fill="#5694CA" opacity="0.503976004" cx="135" cy="41" r="5"></circle>
        <circle id="Oval" fill="#5694CA" opacity="0.503976004" cx="205" cy="56" r="5"></circle>
        <circle id="Oval" fill="#5694CA" opacity="0.503976004" cx="190" cy="86" r="5"></circle>
    </g>
</svg>