<?xml version="1.0" encoding="UTF-8"?>
<svg width="400px" height="400px" viewBox="0 0 400 400" version="1.1" xmlns="http://www.w3.org/2000/svg" xmlns:xlink="http://www.w3.org/1999/xlink">
    <title>commuting</title>
    <g id="commuting" stroke="none" stroke-width="1" fill="none" fill-rule="evenodd">
        <circle id="Oval" fill="#B1B4B6" opacity="0.498418899" cx="280" cy="245" r="20"></circle>
        <circle id="Oval" fill="#B1B4B6" opacity="0.498418899" cx="315" cy="235" r="25"></circle>
        <circle id="Oval" fill="#B1B4B6" opacity="0.498418899" cx="342.5" cy="217.5" r="37.5"></circle>
        <circle id="Oval" fill="#B1B4B6" opacity="0.498418899" cx="350" cy="180" r="25"></circle>
        <circle id="Oval" fill="#B1B4B6" cx="320" cy="203" r="5"></circle>
        <circle id="Oval" fill="#B1B4B6" cx="390" cy="218" r="5"></circle>
        <circle id="Oval" fill="#B1B4B6" cx="375" cy="248" r="5"></circle>
        <circle id="Oval" fill="#B1B4B6" opacity="0.498418899" cx="375.5" cy="192.5" r="12.5"></circle>
        <circle id="Oval" fill="#B1B4B6" opacity="0.498418899" cx="372.5" cy="247.5" r="22.5"></circle>
        <path d="M187.917961,130 C210.644284,130 231.420071,142.840143 241.583592,163.167184 L255,190 C268.807119,190 280,201.192881 280,215 L280,245 C280,253.284271 273.284271,260 265,260 L259.873252,260.00029 C258.351692,242.074549 243.31949,228 225,228 C206.68051,228 191.648308,242.074549 190.126748,260.00029 L89.8732517,260.00029 C88.3516924,242.074549 73.3194897,228 55,228 C36.6805103,228 21.6483076,242.074549 20.1267483,260.00029 L15.2951453,260 C7.01087406,260 0.295145311,253.284271 0.295145311,245 C0.295145311,244.290217 0.345524427,243.581329 0.445902906,242.87868 L3.09383632,224.343146 C5.90897197,204.637196 22.785801,190 42.6918161,190 L58,190 L82.0854185,155.592259 C93.3131389,139.552659 111.660506,130 131.239334,130 L187.917961,130 Z M151,143 L129.662305,143 C114.298776,143 99.9969288,150.838145 91.7308056,163.788405 L75,190 L151,190 L151,143 Z M187.922009,143 L166,143 L166,190 L239,190 L228.341761,168.220121 C220.78876,152.785726 205.105384,143 187.922009,143 Z" id="Combined-Shape" fill="#D4351C"></path>
        <circle id="Oval" stroke="#626A6E" stroke-width="15" cx="55" cy="263" r="22.5"></circle>
        <circle id="Oval" stroke="#626A6E" stroke-width="15" cx="225" cy="263" r="22.5"></circle>
    </g>
</svg>