<?xml version="1.0" encoding="UTF-8"?>
<svg width="400px" height="400px" viewBox="0 0 400 400" version="1.1" xmlns="http://www.w3.org/2000/svg" xmlns:xlink="http://www.w3.org/1999/xlink">
    <title>health</title>
    <g id="health" stroke="none" stroke-width="1" fill="none" fill-rule="evenodd">
        <circle id="Oval" fill="#B1B4B6" opacity="0.498418899" cx="62.5" cy="277.5" r="22.5"></circle>
        <circle id="Oval" fill="#B1B4B6" opacity="0.498418899" cx="257.5" cy="127.5" r="22.5"></circle>
        <circle id="Oval" fill="#B1B4B6" opacity="0.498418899" cx="97.5" cy="262.5" r="37.5"></circle>
        <circle id="Oval" fill="#B1B4B6" opacity="0.498418899" cx="293.5" cy="111.5" r="37.5"></circle>
        <circle id="Oval" fill="#B1B4B6" opacity="0.498418899" cx="135" cy="285" r="30"></circle>
        <circle id="Oval" fill="#B1B4B6" opacity="0.498418899" cx="340" cy="100" r="30"></circle>
        <circle id="Oval" fill="#B1B4B6" cx="80" cy="245" r="5"></circle>
        <circle id="Oval" fill="#B1B4B6" cx="47" cy="227" r="5"></circle>
        <circle id="Oval" fill="#B1B4B6" cx="275" cy="95" r="5"></circle>
        <circle id="Oval" fill="#B1B4B6" cx="345" cy="110" r="5"></circle>
        <circle id="Oval" fill="#B1B4B6" cx="340" cy="140" r="5"></circle>
        <circle id="Oval" fill="#B1B4B6" cx="34" cy="244" r="5"></circle>
        <circle id="Oval" fill="#6F72AF" cx="200" cy="55" r="45"></circle>
        <path d="M170.25,118.25 C217.75,103.75 255.5,118.5 283.5,162.5 C296.752418,188.865337 302.765713,219.434035 301.539884,254.206096 C301.130909,265.806888 291.607999,275 280,275 C268.954305,275 260,266.045695 260,255 L260,240 L260,240 C260,213.333333 256.666667,193.333333 250,180 L250,380 C250,391.045695 241.045695,400 230,400 C218.954305,400 210,391.045695 210,380 L210,277.5 L210,277.5 L190,277.5 L190,380 C190,391.045695 181.045695,400 170,400 C158.954305,400 150,391.045695 150,380 L150,160 L150,160 C118.333333,136.166667 101.666667,99.5 100,50 L100,20 C100,8.954305 108.954305,2.02906125e-15 120,0 C131.045695,-2.02906125e-15 140,8.954305 140,20 L140,40 L140,40 C140,72 150.083333,98.0833333 170.25,118.25 Z" id="Path" fill="#6F72AF"></path>
        <path d="M197,210.966941 C195.987013,218.98898 190.415584,223 180.285714,223 C165.090909,223 158,218.487603 158,202.944902 C158,187.402201 168.636364,158.322309 177.753247,153.809912 C184.406553,150.516862 191.599352,157.904691 195.000827,164.47625 L195,125 C195,122.238576 197.238576,120 200,120 C202.761424,120 205,122.238576 205,125 L205.000205,164.474257 C208.402102,157.903197 215.59412,150.517195 222.246753,153.809912 C231.363636,158.322309 242,187.402201 242,202.944902 C242,218.487603 234.909091,223 219.714286,223 C209.584416,223 204.012987,218.98898 203,210.966941 L203,183 L197,183 L197,210.966941 Z" id="Combined-Shape" fill="#F499BE"></path>
        <path d="M201,19 C203.570086,19 205.913721,19.969552 207.685099,21.5628499 C208.721845,21.1982719 209.837768,21 211,21 C215.48174,21 219.274871,23.9482819 220.54569,28.0111414 L220.720095,28.0038418 L221,28 C226.42924,28 230.847932,32.3266708 230.996158,37.7200952 L230.999,37.95 L230.998406,37.8313909 C234.531067,39.37414 237,42.8987449 237,47 C237,52.5228475 232.522847,57 227,57 C225.540732,57 224.154468,56.6874308 222.904507,56.1255912 C221.076029,58.4826129 218.215217,60 215,60 C211.223951,60 207.936729,57.9070882 206.235068,54.8180008 C204.525985,56.1836349 202.358329,57 200,57 C197.952601,57 196.048911,56.3847089 194.463753,55.3289489 C192.692928,58.1353135 189.564224,60 186,60 C182.784783,60 179.923971,58.4826129 178.094612,56.1248882 C176.845532,56.6874308 175.459268,57 174,57 C168.477153,57 164,52.5228475 164,47 C164,42.8983565 166.469401,39.3734724 170.002598,37.8309526 C170.091712,32.3860183 174.533651,28 180,28 C180.152533,28 180.304269,28.0034151 180.455134,28.010173 C181.725129,23.9482819 185.51826,21 190,21 C191.42937,21 192.788697,21.2998922 194.018492,21.8401894 C195.820629,20.0828843 198.283854,19 201,19 Z" id="Combined-Shape" fill="#F499BE"></path>
    </g>
</svg>