<?xml version="1.0" encoding="UTF-8"?>
<svg width="400px" height="400px" viewBox="0 0 400 400" version="1.1" xmlns="http://www.w3.org/2000/svg" xmlns:xlink="http://www.w3.org/1999/xlink">
    <title>exercise</title>
    <g id="exercise" stroke="none" stroke-width="1" fill="none" fill-rule="evenodd">
        <g id="Group-4" transform="translate(84.000000, 92.000000)">
            <circle id="Oval" fill="#D53880" cx="56" cy="22" r="22"></circle>
            <path d="M33,219.722222 L33,72.2222222 C33,59.9492278 42.9492278,50 55.2222222,50 C67.4952167,50 77.4444444,59.9492278 77.4444444,72.2222222 L77.4444444,144.444444 L77.4444444,144.444444 L83,172.222222 L108.268655,214.336648 C110.623651,218.26164 109.350917,223.352576 105.425925,225.707571 C105.179992,225.855131 104.926565,225.989825 104.666667,226.111111 C99.8935538,228.338564 94.2088001,226.69517 91.3604829,222.264455 L66.3333333,183.333333 L66.3333333,183.333333 L60.2222222,145.555556 L53.5555556,145.555556 L53.5555556,219.722222 C53.5555556,225.398482 48.9540377,230 43.2777778,230 C37.6015178,230 33,225.398482 33,219.722222 Z" id="Path-8" fill="#D53880"></path>
            <path d="M9.04347826,95.9130435 L15.4,95.9130435 L15.4,95.9130435 C25.3,94.0289855 31.1666667,91.3913043 33,88 L33,110.608696 C28.2333333,112.869565 22.9166667,114 17.05,114 L9.04347826,114 C4.04890313,114 6.11659044e-16,109.951097 0,104.956522 C-6.11659044e-16,99.9619466 4.04890313,95.9130435 9.04347826,95.9130435 Z" id="Path-9" fill="#B52668"></path>
            <path d="M55.3178298,62.088411 C59.4053373,58.8574556 65.4297569,59.4398209 68.7737475,63.3891603 C79.8402943,76.4590378 85.4344712,87.0746084 84.9736662,96.3435519 C84.5332976,105.201421 78.198412,116.421159 66.1098802,131.433791 C62.8670088,135.461082 56.8591596,136.185842 52.6909735,133.052588 C48.5227873,129.919333 47.7726715,124.114565 51.0155429,120.087274 C60.7762516,107.965543 65.6811621,99.2784393 65.8711453,95.4569891 C66.040692,92.0466128 62.2683722,84.888218 53.9715736,75.0894846 C50.6275829,71.1401452 51.2303224,65.3193663 55.3178298,62.088411 Z" id="Path-10" fill="#B52668" fill-rule="nonzero"></path>
        </g>
        <g id="Group-3" transform="translate(145.000000, 106.000000)">
            <circle id="Oval" stroke="#979797" stroke-width="10" cx="205" cy="188" r="45"></circle>
            <circle id="Oval" stroke="#979797" stroke-width="10" cx="50" cy="188" r="45"></circle>
            <g id="Group-2" transform="translate(50.000000, 88.000000)" stroke="#003078" stroke-width="10">
                <polyline id="Path-3" stroke-linecap="round" points="2.34604003e-14 100 29 -6.36489493e-14 49 -6.80379574e-15"></polyline>
                <polygon id="Path-4" stroke-linecap="round" stroke-linejoin="round" points="25 20 80 100 115 20"></polygon>
                <polygon id="Path-7" stroke-linejoin="round" points="115 20 155 100 80 100"></polygon>
            </g>
            <g id="Group" transform="translate(90.000000, 0.000000)">
                <path d="M42,40 C53.045695,40 62,31.045695 62,20 C62,8.954305 53.045695,0 42,0 C30.954305,0 22,8.954305 22,20 C22,31.045695 30.954305,40 42,40 Z M42.526077,118.468001 L33.4125175,65.0151124 C31.5254273,53.9469428 38.9401874,43.4354672 50,41.5 C61.0000114,39.574998 71.4778049,46.9317467 73.4028069,57.931758 C73.4076221,57.9592734 73.4123803,57.9867987 73.4170814,58.0143337 L80.8293043,101.428782 C82.7341569,112.585776 77.478059,123.746647 67.6637812,129.384636 L37,147 L37,147 L54.8804699,171.585646 C58.2127607,176.167546 57.1997524,182.583265 52.6178526,185.915556 C52.5787678,185.943981 52.5394826,185.97213 52.5,186 C47.7837324,189.32913 41.2689125,188.2595 37.8647237,183.59712 L16.1937307,153.91651 C11.3086192,147.225857 12.7722997,137.841846 19.4629525,132.956735 C19.7502996,132.746931 20.0450203,132.547417 20.3465554,132.358572 L42.526077,118.468001 L42.526077,118.468001 Z" id="Combined-Shape" fill="#F47738"></path>
                <path d="M49.827812,52.7229592 C42.471073,68.1964406 31.8618024,75.7887875 18,75.5 L7.25,75.5 C3.24593556,75.5 -4.9035647e-16,78.7459356 0,82.75 C4.9035647e-16,86.7540644 3.24593556,90 7.25,90 L22,90 L22,90 C38.6666667,89.3333333 50.1666667,83.5 56.5,72.5 L63.3824623,61.4282128 C65.8928136,57.3898216 64.6540925,52.0810169 60.6157013,49.5706656 C60.5773202,49.5468071 60.538752,49.5232512 60.5,49.5 C56.934754,47.3608524 52.3104293,48.5169336 50.1712817,52.0821796 C50.0465242,52.2901087 49.9318857,52.5039441 49.827812,52.7229592 Z" id="Path-6" fill="#D9510C"></path>
            </g>
        </g>
        <g id="Group-5" transform="translate(8.000000, 139.000000)">
            <path d="M6,73 C9.3137085,73 12,75.6862915 12,79 L12,149 C12,150.104569 12.8954305,151 14,151 L84,151 L84,151 C87.2265056,151 89.8581817,153.546768 89.9944566,156.739732 L90,157 C90,160.313708 87.3137085,163 84,163 L10.8,163 C4.8353247,163 0,158.164675 0,152.2 L0,79 C0,75.6862915 2.6862915,73 6,73 Z" id="Path-11" fill="#F47738" fill-rule="nonzero"></path>
            <circle id="Oval" fill="#626A6E" cx="72" cy="175" r="9"></circle>
            <circle id="Oval" fill="#626A6E" cx="16" cy="175" r="9"></circle>
            <path d="M25,145.029412 L25,60.5294118 C25,48.639046 34.639046,39 46.5294118,39 C58.4197776,39 68.0588235,48.639046 68.0588235,60.5294118 L68.0588235,114.46875 L68.0588235,114.46875 L77.015625,114.46875 C81.9775583,114.46875 86,118.491192 86,123.453125 C86,128.415058 81.9775583,132.4375 77.015625,132.4375 L55.1176471,132.4375 C52.3562233,132.4375 50.1176471,130.198924 50.1176471,127.4375 L50.1176471,104.885417 L50.1176471,104.885417 L42.9411765,104.885417 L42.9411765,145.029412 C42.9411765,149.983731 38.9249073,154 33.9705882,154 C29.0162692,154 25,149.983731 25,145.029412 Z" id="Path-12" fill="#2EB8AC"></path>
            <circle id="Oval" fill="#2EB8AC" cx="46" cy="18" r="18"></circle>
            <path d="M47.1428571,46 C50.9299526,46 54,49.2046986 54,53.1578947 C54,70.199341 44.3297659,79.4898756 27.7142857,80 L8.85714286,80 C5.07004743,80 2,77.3917926 2,73.4385965 C2,69.4854004 5.07004743,66.877193 8.85714286,66.877193 L25.4285714,66.877193 C34.2793972,66.504249 40.2857143,60.9122807 40.2857143,53.1578947 C40.2857143,49.2046986 43.3557617,46 47.1428571,46 Z" id="Path-13" fill="#28A197" fill-rule="nonzero"></path>
        </g>
        <circle id="Oval" fill="#B1B4B6" opacity="0.498418899" cx="32.5" cy="72.5" r="22.5"></circle>
        <circle id="Oval" fill="#B1B4B6" opacity="0.498418899" cx="68.5" cy="58.5" r="37.5"></circle>
        <circle id="Oval" fill="#B1B4B6" opacity="0.498418899" cx="112.5" cy="52.5" r="22.5"></circle>
        <circle id="Oval" fill="#B1B4B6" cx="64" cy="35" r="5"></circle>
        <circle id="Oval" fill="#B1B4B6" cx="120" cy="57" r="5"></circle>
        <circle id="Oval" fill="#B1B4B6" cx="50" cy="107" r="5"></circle>
    </g>
</svg>