<?xml version="1.0" encoding="UTF-8"?>
<svg width="400px" height="400px" viewBox="0 0 400 400" version="1.1" xmlns="http://www.w3.org/2000/svg" xmlns:xlink="http://www.w3.org/1999/xlink">
    <title>delivery</title>
    <g id="delivery" stroke="none" stroke-width="1" fill="none" fill-rule="evenodd">
        <circle id="Oval" fill="#B1B4B6" opacity="0.498418899" cx="280" cy="245" r="20"></circle>
        <circle id="Oval" fill="#B1B4B6" opacity="0.498418899" cx="315" cy="235" r="25"></circle>
        <circle id="Oval" fill="#B1B4B6" opacity="0.498418899" cx="342.5" cy="217.5" r="37.5"></circle>
        <circle id="Oval" fill="#B1B4B6" opacity="0.498418899" cx="350" cy="180" r="25"></circle>
        <circle id="Oval" fill="#B1B4B6" opacity="0.498418899" cx="372.5" cy="162.5" r="12.5"></circle>
        <circle id="Oval" fill="#B1B4B6" opacity="0.498418899" cx="377.5" cy="222.5" r="22.5"></circle>
        <path d="M265,100 C273.284271,100 280,106.715729 280,115 L280,245 C280,253.284271 273.284271,260 265,260 L259.995,260 L259.994976,259.879869 C259.663821,239.455214 243.003571,223 222.5,223 C201.956075,223 185.270614,239.520051 185.003258,260.000511 L94.995,260 L94.9949761,259.879869 C94.6638214,239.455214 78.0035713,223 57.5,223 C36.9560745,223 20.2706137,239.520051 20.0032585,260.000511 L15,260 C6.71572875,260 -6.09089673e-15,253.284271 0,245 L0,210 C-2.705415e-15,187.90861 17.90861,170 40,170 L60,170 L60,160 C60,126.862915 86.862915,100 120,100 L265,100 Z M151,115 L121,115 C96.1471863,115 76,135.147186 76,160 L76,170 L151,170 L151,115 Z" id="Combined-Shape" fill="#28A197"></path>
        <circle id="Oval" stroke="#626A6E" stroke-width="20" cx="57.5" cy="260.5" r="22.5"></circle>
        <circle id="Oval" stroke="#626A6E" stroke-width="20" cx="222.5" cy="260.5" r="22.5"></circle>
    </g>
</svg>