<?xml version="1.0" encoding="UTF-8"?>
<svg width="400px" height="400px" viewBox="0 0 400 400" version="1.1" xmlns="http://www.w3.org/2000/svg" xmlns:xlink="http://www.w3.org/1999/xlink">
    <title>advice-commuting</title>
    <g id="advice-commuting" stroke="none" stroke-width="1" fill="none" fill-rule="evenodd">
        <circle id="Oval" fill="#B1B4B6" opacity="0.498418899" cx="97.5" cy="322.5" r="22.5"></circle>
        <circle id="Oval" fill="#B1B4B6" opacity="0.498418899" cx="122.5" cy="342.5" r="22.5"></circle>
        <circle id="Oval" fill="#B1B4B6" opacity="0.498418899" cx="137.5" cy="302.5" r="37.5"></circle>
        <circle id="Oval" fill="#B1B4B6" opacity="0.498418899" cx="182.5" cy="307.5" r="22.5"></circle>
        <circle id="Oval" fill="#B1B4B6" cx="133" cy="288" r="5"></circle>
        <circle id="Oval" fill="#B1B4B6" cx="187" cy="344" r="5"></circle>
        <path d="M295,220 C300.522847,220 305,224.477153 305,230 L305,240 C305,256 310.041667,265.708333 320.125,269.125 C343.875,261.875 362.75,269.25 376.75,291.25 C383.376211,304.432672 386.382858,319.717026 385.769941,337.103063 C385.565441,342.90345 380.803992,347.5 375,347.5 C369.477153,347.5 365,343.022847 365,337.5 L365,330 C365,316.666667 363.333333,308.333333 360,305 L360,390 C360,395.522847 355.522847,400 350,400 C344.477153,400 340,395.522847 340,390 L340,348.75 L330,348.75 L330,390 C330,395.522847 325.522847,400 320,400 C314.477153,400 310,395.522847 310,390 L310,290 C294.166667,284.75 285.833333,269.75 285,245 L285,230 C285,224.477153 289.477153,220 295,220 Z M335.5,222 C346.545695,222 355.5,230.954305 355.5,242 C355.5,253.045695 346.545695,262 335.5,262 C324.454305,262 315.5,253.045695 315.5,242 C315.5,230.954305 324.454305,222 335.5,222 Z" id="Combined-Shape" fill="#6F72AF"></path>
        <circle id="Oval" fill="#D53880" cx="225" cy="70" r="35"></circle>
        <path d="M190,172 C186.666667,172 185,183 185,205 L185,235 C185,243.284271 178.284271,250 170,250 C161.715729,250 155,243.284271 155,235 L155,194 C155,123 190,113 225,113 C260,113 300,123 300,195 L300,235 C300,243.284271 293.284271,250 285,250 C276.715729,250 270,243.284271 270,235 L270,205 C270,183 268.333333,172 265,172 L265,385 C265,393.284271 258.284271,400 250,400 C241.715729,400 235,393.284271 235,385 L235,262.5 L220,262.5 L220,385 C220,393.284271 213.284271,400 205,400 C196.715729,400 190,393.284271 190,385 Z" id="Combined-Shape" fill="#D53880"></path>
    </g>
</svg>