<svg xmlns="http://www.w3.org/2000/svg" viewBox="0 0 1480 2340">
  <path fill="#00703C" d="M735 1h-4c-4 1-5 5-8 16l-2 9-1 6v3h6c8-1 8-1 10 7 2 6 4 8 9 5l7-2c5-1 10-3 10-5 0-1-2-2-6-1-4 2-9 0-10-4-1-3 2-11 7-17l2-3-3-4-16-11-1 1Zm38 48c0 3 4 7 7 7s3-1-1-5c-4-5-6-5-6-2Zm-57 14 2 7 2 2 3 6c2 5 4 5 6 0 2-4 2-4 0-9-1-5-2-5-7-8-9-4-9-4-6 2ZM412 812l2 3c1 2 2 5 4 6 2 3 2 3 0 5l-7 6c-6 4-7 6-11 16-3 9-4 12-4 17-3 17-6 31-13 43l-3 2c-4 1-6 3-6 5 0 3 4 6 7 6 2 0 5 4 5 6s-2 5-5 8c-4 5-4 5-8 4l-8 1c-3 2-9 3-11 2v-4l1-8c1-5 3-10 5-10l5-5c2-4 2-6 3-15 1-17 2-22 8-35l5-14c2-6 9-16 16-21l15-18Zm19 37c3 0 8 5 10 10s3 11 0 15c-2 4-1 6 2 9s3 3 2 5c-2 2-2 4 0 9s3 7 1 11c-2 3-2 3-6 3h-1c-4 0-6-1-10-3-6-5-8-9-8-19v-1c0-6 0-8-3-13l-3-7 2-6c2-5 3-6 7-9l7-4Zm-126-60c1 1 2 5 2 12 1 13 2 18 6 23 3 5 5 19 2 20-1 1-6 5-9 10-2 2-2 2-6 1-5-2-8-1-10 4l-4 4c-4 0-4-3 1-6l5-5c1-3-2-16-4-17-3-2-2-4 2-6 3-1 5-4 4-8 0-3-3-5-8-6l-4-1c5-9 8-13 15-19 5-6 8-7 8-6Zm-30 21c1 4 0 6-1 8l-5 10c-4 7-6 9-8 8l3-6c3-4 3-5 4-13 0-6 1-9 2-10 2-3 4-2 5 3Zm187 13v7c-3 0-6-6-6-10 0-5 5-4 6 3Zm277-701h7c7 1 8 2 3 5l-2 6-4 11c-5 10-5 13 1 18 4 4 4 4 3 6l-3 9c-3 10-16 24-22 24-10 3-18 9-24 18-3 6-11 15-17 19l-13 10-12 9c-5 3-9 7-12 13-3 5-9 9-13 9l-4 3c-4 3-5 3-8 3h-1c-6 0-8 1-8 5s1 5 6 7c3 2 4 2 4 4 0 3-3 6-6 6l-5-2h-1l-1-1h-22l-3-3c-2-5-8-8-11-6-2 2-2 2-1 4l3 4 3 5c0 2 2 5 5 6 3 3 4 3 8 3h1c5-1 5-1 9 3l7 3 7 2 10 1c5-1 5 0 6 2s2 2 4 2l5-2h4l-5 5-6 8c-1 5-2 6-4 1l-3-4c-3 0-9 2-14 6-8 5-10 6-15 6-7 0-11 2-21 13-14 15-17 23-7 22 4 0 5 0 13-9 11-11 15-13 19-11l7 2c4 0 4 2 0 7-4 6-7 8-13 10l-7 2c-2 1-3 4 0 6 2 2 0 3-10 3h-10l-6 5c-8 8-7 8 15 10 25 1 27 1 41-15l8-9h7l12-2 10-1 6 19 2 8-2 6c-4 10-5 17-1 17l7-4 12-5 8-2 7 3 7 5c1 2-2 9-7 14-5 6-6 8-3 15l1 10 1 6c2 2 1 4-4 7l-10 9-8 6c-2 0-5 1-6 3l-7 4-5 4-2 13c-1 9-1 11-3 15l-1 1v1h-1l-4 3c-3 2-3 2-5 1-4-3-12-5-13-4l-3 4c-1 7 0 7-9 6l-13-1c-4-2-4-2-7 0l-2 4c0 2-4 6-10 8-12 6-20 12-20 15l-2 1c-2 1-3 0-5-2-4-5-5-4-14 5l-1 1c-5 6-5 6-5 9v1c1 3 1 5-1 8-3 3-7 6-12 6-3 0-6 3-5 6l1 6c0 1 1 3 5 4 4 2 9 6 9 8l-5 4c-8 3-10 8-6 12 2 3 2 3 0 7-1 3-3 4-6 6-4 2-13 12-16 18 0 2-2 4-3 5-1 2-1 6 2 6l4 5c3 5 4 6 9 8l5 2v20l-6 3c-4 2-6 4-7 6l-3 4c-2 2-2 2-5-1-3-2-3-3-5-2l-3 3c-1 2-2 16-1 19v7l-2 8c0 3-1 5-4 7-4 4-4 5 0 8 2 1 2 2 1 4l-2 8c-2 7-4 9-6 9-2-1-2-2-2-5v-1l-3-11-4-11c-2-6-3-8-7-7l-4 4c-1 4-1 4-3 3-3-2-5 0-7 8l-4 10c-2 2-2 4-2 6v1l-1 5-4-5c-1-4-2-6-1-8l1-10c1-8 5-16 15-29 3-5 6-7 11-10 8-4 10-6 12-12 3-6 5-8 10-10 9-4 15-12 13-18-1-3-4-2-9 2l-5 5-3-2h-6l-7 9c-5 10-7 12-13 15-3 2-7 4-9 7l-10 10c-4 4-6 7-6 9 0 5-8 8-10 3-1-3-4-3-6 0v17l1 11c3 14 3 12-3 18l-9 10c-4 5-5 5-11 2-4-2-4-2-4-5 2-6 5-13 8-17l9-12v-1c1-4-1-4-6-2l-5 2h-1c-1 0 0-2 7-12l5-11 4-5c3-4 4-6 2-12-2-5-2-5 3-14 3-6 3-9-1-10l-4-3 4-3c5-3 6-5 5-9 0-3-5-6-9-5-3 1-3 0-1-5 2-3 3-5 6-5 10-4 13-6 11-12v-1c0-2 0-2-3-2h-4l5-5c7-8 8-9 14-7l11 3c5 2 5 2 10 0 6-2 12-8 20-20 5-8 5-9 4-12 0-3-1-4-4-4-2 0-3 0-5 3l-6 7-7 8c-3 5-5 6-11 6-9-1-9-7-1-12 6-3 8-5 8-8 0-6-3-7-10-4-5 2-8 3-8 1s5-9 8-11l4-7c3-5 6-7 14-5 5 1 6 1 11-2l12-4c8-2 12-7 7-9-2-1-4-1-10 1-9 2-19 3-22 1-1-2-1-2 2-5l4-6 7-9c3-4 4-6 4-9 1-3 0-4-4-6-9-5-12-5-20-5h-3c-7 0-8 0-9 2-3 6 0 9 13 10l10 1c0 1-6 7-8 7l-5 1c-3 1-5 5-3 8 1 2 1 3-3 6l-15 13-13 9c-6 2-8 4-8 8 0 9-14 21-21 17-3-1-4-3-1-7 2-3 0-5-5-5l-6 2-4 3c-4 0-9-2-12-5s-8-14-7-15c0-1 13 5 17 8 3 2 5-1 5-5-1-3-1-4 2-7 4-5 7-6 12-3 4 2 13 3 21 0 5-1 6-2 6-4 0-3-2-4-13-5l-11-3c-1-1-5-3-8-3-7-2-10-6-8-8l7-2c4 0 6-1 7-3 2-3 0-4-5-6-8-3-7-6 2-6 4 0 5 0 9-5 4-4 5-8 2-11-2-3-10-5-15-5h-1c-4 0-4 0-5-2l7-21c1 0 4 2 6 6 4 6 11 7 23 4 4-1 8-3 9-2h3c2-1 2-2 0-5l-4-5c-2-1-4-1-13 1-2 1-2 1-4-3-2-6-6-9-11-9l-4-1c0-2 8-12 10-13 3 0 8 2 14 7 2 3 5 5 6 5l4-2c2-2 5-3 10-3l8-1c2-2 1-6-1-8s-3-2-9-2h-1l-8 1-3-4c-2-3-4-4-9-5l-5-2c-1-1 1-3 3-7l3-8c-1-3 0-4 6-4 3 0 4 1 8 5 3 4 5 5 8 6 3 0 4 0 8-4l4-7c0-2-1-2-4-2h-1c-7 0-10-2-10-6 0-2 2-3 4-4l5-4c0-3-3-7-6-7s-8 3-11 6c-2 2-3 2-9 2h-2l-10-1c0-2 5-4 13-6 13-3 21-9 23-17 2-5 0-9-5-9l-3 1-5 6c-6 6-7 6-7-2v-1c0-4 0-5-3-4-2 0-5 1-7 4l-16 10c-1-1-2-4-2-10-1-9-1-9-3-11-3-2-3-3-3-7v-1c0-7 2-13 4-14s6 1 15 9c4 4 7 5 13 2h7c7 2 8 1 8-6 0-8-2-9-15-11l-8-2-6-9-1-1-6-13c0-3 0-3 7-3h2c9 0 9 0 7-9-1-6-2-7-10-8l-4-2-1-8c0-10 1-14 3-14 3 0 5 3 6 9 2 6 7 14 10 15 3 0 8-3 9-6l1-9c1-6 0-7-3-10-3-4-5-8-4-9s3 1 6 5c1 3 4 5 8 6l7 3c2 0 5-3 6-7s1-4 3-3l4 4c2 3 15 10 18 10 4 0 6-3 6-6-1-6 4-2 7 5s10 13 12 8c0-1-2-13-5-17 0-2-3-6-6-8-3-4-4-5-4-9 1-5-2-8-10-14-10-6-16-15-9-13 4 1 10-7 10-15l3-9v-1h1c2-5 2-5 1-6l-10-8v-4l4-3c3-3 2-2 6 0s7 2 11 0c4-3 8-3 15 2l9 5c3 1 5-1 6-5l2-5 1-3c0-4-2-5-12-6-9-2-11-2-13-5-2-1-3-4-4-6l-2-13h4l7 2h1c3 0 3 0 4-5l4-9c3-6 2-10-5-13-4-2-5-4-6-8-1-3 0-3 4-7 5-3 6-5 8-12 1-4 3-5 9-4 6 2 10 9 6 16-2 4-1 6 4 7 3 1 9-1 9-2l1-5c2-3 2-3 3-2 4 3 2 8-7 18-3 4-3 7 1 10l4 2 15-15 4-5c4-3 5-6 6-8v-1c0-3 0-3 2-3h1c4 0 5 1 7 6l-1 9c-3 12-3 14-2 15 3 4 8 1 12-7 5-9 12-13 18-10l6 2c4 0 5-1 8-4s4-4 8-4l7-2c6-2 12-1 15 1s3 2 8 1c5-2 11-2 13 0l3 1c2 0 3-2 3-5s4-7 8-7l7-2c3-3 5-3 8 0 2 2 3 3 7 3l6-1h5c4 2 9 3 11 2l3-5c0-4 1-5 4-6h15ZM337 785l5 1h2c0 2-3 6-6 9-4 4-7 10-7 13l-1 4c-2 2-2 2-5 1-4-1-5-4-4-12 1-11 3-14 11-17 2-1 2-1 5 1Zm109 15c2 0 5 4 5 7l-3-2-3-4 1-1Zm4-19 1 3 2 4c2 3 3 4 1 4s-5-6-5-9v-1c0-2 0-2 1-1Zm62-50c2 1 6 8 9 18 2 7 2 8 1 12-3 10-5 12-11 11-5-1-7-4-10-12l-2-7 2-5 6-11c2-4 4-6 5-6Zm-147 19-6 10-4 7h-5c-4-1-5-1-8 1-4 4-5 4-4 1 1-6 7-11 16-16l9-6c4-5 6-3 2 3Zm-17-107c5 0 14 2 18 5 4 2 11 9 11 11l-4 3c-3 2-5 4-6 7-2 6-5 8-9 7l-6-1c-4-1-4-1-5 1-1 3-6 7-8 7l-6 2c-3 2-6 3-10 3h-6l18-8c4-2 8-8 8-11-1-2-5-4-9-4l-8 2c-6 3-10 4-10 2l2-2 4-5c1-3 2-3 4-3 5 0 14-7 16-12 1-4 1-4 5-4h1Zm-20-29c7 10 8 11 9 15l4 10-4 1c-3 0-6 0-8 2l-5 1-4-4c-6-6-12-10-17-10l-5-1 3-3 3-4c0-2 5-1 6 2l5 2c2-1 3-1 2-4v-7l1-4c2-3 6-1 10 4Zm22-32 14 7c2 0 3 3 1 5s-10 1-13 0l-7-2-9-1c-4-2-8-2-13-1-8 0-9-1-3-6 3-3 5-4 6-3h16c3-3 5-2 8 1Zm-50-77c3 1 5 6 5 11 1 5 0 5-2 6l-3-2-4-4c-5-3-6-6-1-9l5-2Zm70-27c4 0 2 4-3 7-3 1-5 4-7 8-3 6-9 12-12 12-2 0-2-1 3-10 4-8 7-11 13-15l6-2Zm-56-132 5 7c1 4 4 7 5 9 5 3 6 7 6 25v17l-3 1c-7 1-7 1-7 8v2c0 5 0 5 3 7 8 5 9 9 3 15-7 7-4 10 5 6l5-1-2 4c-4 5-3 6 9 7 9 1 10 1 14 4 6 5 10 5 19 1l7-3 4 3 4 4c0 2-3 4-7 7l-5 2-3-2c-3-3-6-3-14-1-7 2-8 1-10-4-3-5-6-7-10-6-3 1-4 2-2 5v4c-2 2-3 1-3-2-1-2-1-3-5-3l-7-2c-2-2-2-2-4-1v3c2 3 0 5-3 5-2 0-3-1-4-4-2-4-2-4-6-3h-4l2-5 2-6v-14c-3-5-8-12-11-13-4-2-7-6-8-11 0-6-1-8-4-6s-5 1-8-4c-4-6-4-8 1-10 3-1 3-1 3-4v-1l-1-5 3 4 4 7 5 5c3 1 4 1 5-1 4-5 5-4 6 3 1 3 7 5 10 4 2 0 2-1 2-4v-1c0-4-2-8-5-13-2-3-2-6-2-13v-11c-5-7-5-7 0-11l6-4Zm-15 95c5 5 5 7 0 7s-7-1-7-5v-5c1-2 3-1 7 3Zm-42-39c1-1 0-1 5 1 5 3 6 5 8 11l-1 5c-1 1-3 0-7-4-6-4-6-4-6-7v-1Zm-17-114c2-2 5 0 5 3 0 2-4 7-9 12l-9 10-4-3c-3-3-4-4-4-6 1-2 7-6 12-8 5-1 8-4 8-6Zm97-143-2 5v5c1 2 1 6-1 12-1 3-2 7-1 9 0 3 0 4-4 8l-18 15-3 3-2 10c-1 8-2 8-5 10l-5 1-5 2v4c3 3 2 4-5 4-6 1-11 3-14 6l-6 2c-4 2-6 5-4 6s1 3-3 7l-6 6c-1 2-1 2 2 5s3 3 3 6c-1 3-1 4 1 6 3 2 2 4-2 4-5 0-6-2-8-9l-2-4h-4l-8-2-14-9c0-1 2-3 11-6 10-3 11-4 11-8 0-2-1-3-7-3l-7-2v-3l1-2c-1-3-5-4-6-2-1 3-3 2-5-1s-2-4 0-8l2-6 6-1h1c3 0 4 0 4-2l2-2c2 0 5 3 5 5 0 4 3 16 5 16 2 1 9-2 10-4l-1-5c-3-3-2-6 0-7 3-2 5-1 6 3 0 2 1 3 2 3 3 0 14-5 14-7 1-1-1-3-3-5-4-4-8-12-8-15 0-2 4-8 9-13l12-6c8-2 10-3 13-7l10-9 17-11c8-5 12-6 12-4Zm-56 112c0 6 2 9 8 9l4 1c2 2 1 3-2 2h-7l-5-2-6-1h-1c-2 0-2 0-2-3v-1c0-5 2-8 6-9 6-2 6-1 5 4Zm16-14 8 1-4 3c-4 5-9 6-14 5-5 0-5-3-1-6 2-3 3-3 9-3h2ZM156 347c-2 1-1 3 3 5l7 4c3 3 4 3 12 3h11c2 1 2 1 2-1l-2-4-4-4c-1-2-2-3-6-4l-9 1c-4 2-7 2-9 0h-5Zm11 43c-1 1-1 1 1 3 3 2 6 1 6-2 0-2-1-3-3-3l-4 2Zm-2 19v5c1 6 1 9-1 16-4 10-4 10 3 9 6 0 7-1 9-3 4-5 4-6 0-7-4-2-4-2-4-6 0-7-6-18-7-14Zm-4 42v8h13c0-2-12-10-13-8Z"/>
  <path fill="#00703C" d="M706 355c-5 1-8 3-11 7-9 8-16 13-18 13l-6-2h-7c-1 2-1 2 1 8l2 10 2 9 1 11c0 4 0 5 2 4l5-1 6-2c5-3 9-3 12 1l6 6c6 4 9 9 9 12s-3 10-7 15l-4 6c-1 1 0 8 3 21 1 4 1 6-1 9-3 8-5 10-9 10l-9 7-11 7c-3 0-6 2-7 3-3 4-7 12-7 15 0 7-7 21-12 26-5 3-9 4-13 3l-4-2-2 3c-3 6-7 7-16 6h-8l-12 5c-15 8-21 11-28 17l-6 5-4-1c-8-2-9 0-13 13l-4 8-2 3c0 3 4 14 7 18 4 6 2 10-5 10l-5 1c-3 1-3 1-3 7 0 5 0 6 3 7l2 2c0 2-4 7-5 7-3 0-24 16-24 19 0 2 5 6 8 6 4 0 13 4 14 7l1 7c0 4 0 6-3 8-3 3-3 3-2 11 1 12 4 23 8 25l6 4 6 5c5 3 7 6 7 13 1 6 5 10 10 13 4 1 6 0 4-5-1-3-1-3 2-5 3-3 8-4 13-2 7 2 24 0 33-3l19-5-2-2-5-10 8-17c3-4 11-9 14-9l6 2c2 2 5 2 7 2 14-1 17 0 19 7 1 4 1 4 5 5 8 2 13 1 18-2l6-3c5-2 1-6-5-7h-4l-1-7c-1-7 1-11 3-11s9-7 9-10c0-2-4-4-11-6-5-1-6-2-8-4-1-4-1-5 5-6l12 2c7 3 8 3 11 2l10-9c8-9 13-11 23-12l16-3 15-3c7-1 14-5 19-11l7-6c7-3 9-8 11-21 1-9 1-10-1-12-4-6-1-10 7-12 2 0 4-1 5-3 1-4 4-7 10-10 5-3 9-8 16-20 3-4 3-6 4-14 1-11 4-18 10-29l6-11c2-4 3-10 1-10l-2-2v-6l5-14 6-17c3-7 3-9 3-12-2-9-2-12-1-12l6 2 6 2 8-11c10-15 10-17 6-34-3-13-4-14-8-20-5-6-7-8-12-11-8-4-12-4-17 0-3 2-4 2-13 1l-15 1c-10 2-28 2-33 0l-16-3-28-2-21 8-1 3c0 5-1 6-6 6s-6-2-4-7 0-8-7-10l-13-5-7-4-6 2Z"/>
  <path fill="#28A197" d="M533 765c4 0 4 1 6 8s8 13 15 15l9 4 6 3c3 0 6-3 8-8s3-6 9-6c16-5 32-8 49-10h8l5 5c7 6 9 7 15 6 4 0 7 0 12 2l16 3 13 3 12 1c10 1 13 2 19 6 5 4 10 4 23-2 11-5 11-5 18-14l5-9h8c11 1 14 3 15 8 2 9 2 9 10 9h2c7 0 8 0 12 3l2 1 1 1c3 2 3 4 0 7-2 2-4 3-6 0h-9c-7 1-7 1-6 10v1c0 8 0 9-7 7h-8c-4 1-4 1-6-2s-4-3-8 1c-3 3-11 6-20 7-5 0-6 1-11 5l-6 5-5 3c-3 3-6 3-6 0l-3-5c-2-3-3-4-6-4l-6 1c-4 2-9-1-13-6l-4-4-13 7c-5 5-6 10-5 18l2 8c2 2 1 5-2 9l-4 7-5 7-3 5 2 6c3 8 2 17-2 24-2 4-2 6-2 9v1c1 5 1 5-3 9-3 4-4 5-4 10-1 7-3 9-6 9l-1-5v-1c0-4 0-4-4-6-3-1-5-4-6-5l-4-7-2-6c1-4-1-5-5-5l-14-2h-12c-4 1-15 12-17 15l-3 12-2 10-5-2-4-3-8 3c-9 3-17 9-18 14l-3 11c-3 8-6 10-18 11-8 1-9 1-16 6-6 3-7 6-9 15l-1 6-5 1h-11c-4 0-6-1-7-3-2-4-3-5-7-5-5 0-7 2-8 7-1 4-5 8-7 8h-2l4-8 4-10c0-5 1-7 5-9l6-7 6-8c4-4 6-7 7-17l3-11 4-5c2-3 4-5 5-10 2-6 3-7 5-9l6-2c4 0 6-2 8-9 3-7 4-11 2-17-1-2-3-7-3-12-2-10-6-19-10-21h-6c-4 1-9 0-9-2l-3-6c-3-4-3-4-2-7 3-5 4-15 2-24-2-6-2-9-1-17 2-18 4-19 15-14l37 9 7 5c12 11 28 14 26 7-1-2-2-3-7-5l-10-7c-7-6-11-9-16-10-8-3-11-7-11-20v-1c0-6 0-6 2-6Zm229-87c4-4 7-4 11-1s4 4 0 6c-5 3-5 4-6 7s1 7 4 7l8 4 13 4c5 1 11 6 11 9s-8 9-17 13-12 4-15 1c-2-1-4-2-9-2h-7l-4 6-12 10c-8 6-10 8-12 14-1 5-3 6-9 7l-13 4c-10 5-14 5-25 0l-16-4-9-2-9-8c-7-6-8-7-8-10 0-7 3-10 6-7 2 2 8 3 11 2 2-1 2-1 2 4v1c1 9 5 11 14 7h8l12 1h1c9 0 9 0 14-3 11-8 14-11 14-18 0-4-4-12-6-13-2 0-2-1 0-3l4-8 4-7 14-9h1l1-1 15-7Z"/>
  <path fill="#00703C" d="m842 807-9 6-11 9c-6 7-10 8-30 8-10 1-11 1-20 5-6 3-10 4-14 4s-5 1-9 3l-7 9c-5 12-13 10-16-3-2-5-2-6-5-5h-6c-2 1-4 1-6-1-3-3-14-9-15-8-1 2 0 11 2 14 3 6 3 10-3 16-3 4-5 7-7 13l-3 8 2 2c2 2 2 3 2 6l-5 21c-2 8-2 8-1 11 3 4 3 4-2 10-5 5-7 9-7 13s-5 11-11 14h-9c-2-2-8-11-8-13l-2-4-6-10c-6-11-9-14-13-14l-4 1-5 1-6 3-6 3c-3 1-4 2-4 4v7c3 5 3 5-1 9l-4 8c-1 5-5 7-8 7l-5-5c-4-2-5-3-9-3s-6 1-5 5l-3 6c-3 2-4 4-4 6 1 1 0 4-3 8l-5 10c-2 4-3 5-7 7-5 2-7 2-8-2s-6-4-12 0l-5 3-1 7c1 8 0 10-5 13-3 2-6 3-24 3l-9-1-7-1-3 3c-2 3-4 4-6 5-5 0-5 3-2 6 2 2 3 12 1 15s-7 5-10 5c-1-1-3-2-3-4-3-3-5-12-5-18 0-5-1-7-4-5-1 0-2 2-2 9 0 9 1 15 5 23 3 5 11 14 14 14l5-4c3-5 15-13 18-13s6 2 11 6c2 3 7 6 9 7l5 3 6 5 9 9c6 9 16 17 22 17 1 0 2-1 2-7 2-10 0-16-4-21-3-4-3-6-4-11 0-5 0-6 3-11 4-9 11-10 12-1 1 5 3 8 7 11l3 2 4-3 6-3c5 0 6 2 5 8 0 6 2 11 6 11 2 0 3-2 5-5 2-6 5-7 9-7 2 0 2 1 3 8l1 8 8-2c8-2 11-6 11-11 0-3 3-11 6-13 2-3 5-2 7 1 2 4 3 4 5 2l11-1c10 0 12-1 10-5v-13c0-7 0-12-2-16-1-6-1-9 1-9s7 6 10 13l4 6 6-2c4-2 5-2 10 0l23 3c15 1 16 1 20-1 6-3 7-4 7-11s1-8 8-8c5 0 10-3 19-11 2-3 9-8 14-10 4-3 9-6 9-8l4-5 5-11c3-6 4-7 13-17 11-10 14-12 23-12 5 0 7-1 7-5 0-5 4-9 9-11 6-1 11-4 12-5l-1-6-6-18-5-10-5-8c-2-1-3-5-2-7 1-1 3-2 7-2 7-1 8-2 14-13l9-12c4-4 9-15 9-19l-6-7-8-9c-1-2-3-2-13-3l-12 1ZM246 961c-4 2-9 4-13 4l-15 5-8 4-11-1-13-2c-2 0-2 0-4 6l-4 9c-2 3-3 4-1 6 2 1 2 2 1 3l-2 1-8 3c-6 4-9 4-17 1l-7-2h-11c-9 1-10 1-12 4s-4 8-3 12c2 5 1 5-2 8l-4 2s-2 3-2 7c-1 8-5 17-11 24l-6 9c-1 8-1 8-6 8l-9-1c-4 0-6 0-10 2l-6 5c-3 3-6 2-11-1-4-3-4-3-7-2-7 3-5 7 5 12l11 2 7 1 1 7v6l-5 2-7 2-6 6-8 6h-6l-17 1-4 4c-2 4-3 6-6 7-5 1-9 4-9 5l3 4 5 7c1 3 3 6 7 8s5 3 6 7c1 5 2 6 10 8l5 2 1 10 1 11c1 1 3 2 7 2 9 0 13 1 18 7 3 2 5 6 6 8 2 2 3 3 8 4 6 1 7 1 10-1h11c6 1 9 0 17-8l8-5c9-3 10-4 5-10l-4-7c-1-3-1-3 3-8 3-5 5-6 8-7s4-2 6-5c2-4 9-11 13-12 6-3 20 6 24 15l2 4c2 0 5 7 5 12 0 7 4 20 8 24 2 3 3 3 7 3 6 0 11 2 13 6s2 10 1 16c-2 6-3 15-1 15 2 1 10 0 17-2 6-2 6-2 9-1 5 3 6 2 6-3s2-6 8-7c4 0 7 0 11 2l9 3c3 0 4 1 5 4 2 4 4 5 9 6l7 3c4 2 6 1 14-5 5-5 6-7 8-11l1-12c-1-7-1-7 1-10l5-8c2-6 6-9 9-9s5 2 5 5c0 2 0 3 3 3 5 1 15 0 20-2 4-1 9-8 9-12 0-5-2-6-11-6l-8-1v-3l2-7c3-6 3-9 1-19-2-9-2-11-5-14l-4-4c0-5 8-14 12-14s15 7 19 12 6 12 6 21l1 6c2-1 2-10 1-14l-3-9c-1-4-1-8-3-10s-2-7-2-9c0-5-2-9-4-10l-14-1h-12l-5 3c-6 4-10 5-15 2-5-2-6-4-4-10 2-7 11-15 21-18 5-1 7-3 6-9 0-3-1-3-5-5-4-3-5-4-7-13 0-2-1-6-3-8l-7-11c-3-6-5-8-7-9l-5-3c-2-2-2-12 0-15 3-3 2-3-2-3-8 0-10-5-6-16 3-8 2-21-3-23l-12-1c-8 0-10-1-13-3-5-4-8-5-17-6l-8-1-8 2h1Z"/>
  <path fill="#28A197" d="M519 1430c-4 1-5 2-5 4-1 5-1 9 1 11l1 7c-2 11-2 12 3 20l6 7h6c5 0 6 0 7 2v6c0 3 0 3 3 3 3-1 15-11 17-14l9-8c6-3 9-6 9-8 1-3 1-4-3-1l-9 2c-5 1-6 1-7-1l-1-6c0-5-2-7-7-9-4-2-5-3-3-9v-5c-2-1-21-2-27-1Zm159 24-14 6c-8 4-8 4-17 4-10-1-18-3-21-6-3-2-3-2-2 2 3 10-2 20-8 15-1-1-2-2-2-5 0-6-2-7-6-4l-5 3-9 4-16 5c-10 1-11 1-14 5 0 2-4 6-7 10-8 8-13 16-14 24-1 5-2 7-5 10l-7 7-11 8c-6 6-8 7-13 8-6 1-9 4-19 16-8 9-5 11 5 4l4-2 5 3c6 2 8 2 8-2 0-2 4-6 11-12 5-5 6-5 10-5 2 1 5 0 8-1l15-2c6 0 11-1 16-3 6-2 6-2 11 0l5 2c2 1-3 9-7 12-4 2-6 5-5 9v9c-1 6-1 6 2 10l3 6c0 3 3 3 9 0 7-3 9-4 11-2 2 3 1 6-6 12l-9 7-6 7-4 5 1 5 3 9c0 5 1 5 3 6l6-1 13-2c11 0 13 1 15 10 2 7 2 8 5 5s7-3 9 0c2 2 2 8 0 11-2 4-1 7 5 16l8 3 6 1 5-4c6-5 10-6 11-4 2 2 6 1 9-2 3-4 9-7 13-7 3 0 25-7 27-9s2-3 2-11c0-9 0-10 3-12 4-4 12-21 13-29 2-8 1-11-2-11s-15-7-16-9v-6l1-12c0-7 1-8 4-11l4-5c0-4 3-5 7-5l8-4c5-5 8-5 12-2 2 1 4 2 9 2 6 0 11 2 13 7 3 5 9 3 9-3 0-3-2-4-9-6-8-1-9-3-12-12-2-9-8-19-13-24-3-2-6-9-6-13l3-3c6-3 3-7-5-7-7 0-13-3-21-12l-23-18c-4-2-9-2-16 0Z"/>
  <path fill="#00703C" d="m584 1663-4 10c0 4-8 26-11 31-8 14-10 16-18 21l-16 8-16 10c-12 10-12 10-29 9-3 0-4 0-5 5l-3 7c-2 2-6 1-7-1l-2-2-2 2-5 4-4 5c-1 4-4 5-12 6l-11 3-10 2c-3-1-4-1-6 1-3 5-9 8-17 11-8 2-18 7-18 9l2 1c6-3 14-1 21 5 6 6 8 15 4 23v4l1 4c0 3 0 3 9 5 12 3 17 1 10-3-4-2-4-2-4-7 0-7 5-10 13-9 9 2 11 2 11 4 1 2 0 7-3 9l-2 2 3 4c3 3 3 4 3 10l-1 7h5c6 0 7-1 10-14 2-4 18-9 27-7 8 1 9 1 7-7l-1-8c2-2 4-1 11 4 6 4 8 4 8 1 1-2 8-7 12-8l4 1c2 2 2 2 0 6l-5 6c-3 1-4 4-1 6 4 3 5 8 3 13-1 2 0 2 7 2l14 2 6 3 4-4c3-3 5-4 7-4l3 1v8c-1 9-1 10-13 16-8 3-10 4-15 4-6 0-7 1-5 5 2 3 5 3 10 1 2-2 6-3 9-4 5-1 5-1 7 1 2 3 5 3 7 0 3-4 8-10 11-11l8-1h9c5-1 7 0 9 4l4 7 4 7 2 4 2 6c2 7 4 9 7 9l5 1c4 2 12 11 14 15 2 5 2 5 14 6h22l10-2c8 0 8-1 8-8-1-7 0-8 6-10l14-7c7-5 8-6 8-9 0-5 1-7 6-7s6 0 9 6l2 4 5-3 6-2 6-3 8-4c2-1 5-2 6-4 2-2 2-2 2-25l-1-25-6-4-7-7c-4-9-11-12-20-10l-8 1c-5-2-20-25-21-34l-3-9-4-14c-2-2-1-6 3-14l3-9c0-4 5-12 10-14 3-3 4-4 4-8 1-4 1-5-1-6l-36-30-5 2-5 2-5 3c-6 4-14 8-19 8l-9 3c-5 3-8 4-10 2h-6c-7 1-8 0-10-6l-12-22h-1c-2 0-6-6-6-11-2-9-3-11-5-11l-9 4c-5 4-6 5-10 12Z"/>
  <path fill="#28A197" d="m787 998-2 1c-5 4-9 6-12 10l-10 11-1 1c-5 6-6 6-9 6h-1c-7 0-8 3-4 13l2 9v4h-5l-8 1-9 1h-2c-4 0-4 0-4 2 0 3-1 5-5 5l-5 4c-4 4-8 6-11 3-5-4-10 4-12 18v1c-1 9-2 10-9 18-7 7-11 15-12 22 0 6-2 15-5 23l-2 5 4 7 1 2c8 13 12 17 17 21l2 1c11 6 12 8 8 15v1c-2 3-3 4-2 6l1 5 4 7 4 5 1 1h4c2-1 3-2 3-9l2-9 3-1c3 1 8 11 8 17s-1 14-4 20l-2 7 5 3h1c2 0 3 0 6-4l1-1c4-5 5-7 6-16v-1c1-8 2-11 5-13 4-2 7-1 8 5s4 14 6 15l3-3c2-3 17-14 21-15l3 1c3 2 2 6-2 11-6 6-6 9-1 14 4 4 4 7 1 12l-1 1v5c2 3 2 7 0 11l-1 4-1 3c-2 2-2 4-1 7v5l-6 4-1 1c-4 2-5 3-10 3l-5 1c-2 2 2 8 6 10 5 2 5 5 2 9s-8 4-13 0c-5-5-6-4-6 6l1 12c1 6 15 7 32 1l2-1c9-2 11-2 13 2 1 3-2 7-7 7-4 1-7 4-8 7-1 2-2 2-5 2h-2c-4 0-4 0-8 4l-8 5c-4 3-14 16-16 22v1c-1 4-1 4 1 6 1 1 2 2 2 5s1 6 4 11l4 10v1c1 8 2 10 10 17l3 2c7 6 9 7 16 3l10-4 8-4h1c4-4 6-4 9 0 3 5 2 7-9 12l-3 1c-5 3-7 4-8 7-2 3-4 4-8 6-7 3-12 3-18 0s-9-6-12-11l-5-8c-3-4-5-9-4-12 1-2-2-2-5-1l-5 2c-7 2-8 6-3 11 4 3 10 12 12 17l9 10c9 7 14 14 14 19v1l-1 3h-1c-3 0-4 1-3 3l4 1h4c2 1 4 8 4 12 0 8 3 18 5 20 4 3 17 4 26 1 2 0 3 1 8 5l1 1c4 4 4 4 7 3l7-1c4 0 5-1 8-4l4-4c1-10 7-17 18-20 6-2 12-8 15-16v-1c3-5 4-6 14-8l8-3c3-1 5-5 3-7l-1-10-2-16v-20c0-3 0-5 2-9 2-2 3-7 4-10v-1c0-5 1-7 5-9 2 0 3-2 3-3l-5-6c-2-3-7-8-9-13l-2-3c-3-5-3-5-6-5-5 2-11-3-14-10l-2-7 4-6 1-2c2-2 3-4 3-8v-1c0-4 0-5 4-8 5-4 5-6 2-12-4-6-18-21-22-22-11-2-18-7-18-11s-2-6-8-6-9-4-8-7c0-2-1-4-6-8l-7-8c-3-5-1-11 7-20l5-6 4-5 7-3 8-4 1-1c2-2 2-3 2-8l-3-7c-3-4-3-8 2-12v-1c2-2 3-3 3-6 0-4 2-9 5-13 3-2 4-2 7-2h2c6 0 7-1 7-7v-1c-1-5-3-7-12-16l-7-7-4-12-1-6c-3-10-4-12-1-18l3-9c0-3-5-12-8-12l-8 3h-1c-5 3-6 3-10 2-3 0-5-1-6-3-3-3-7-18-6-21l2-7v-1c1-4 1-5-1-8-2-4-2-5-1-9l2-8v-1c1-1 2-3 4-3l4-4c2-2 1-3-3-5h-1c-2-1-4-2-6-6l-10-10c-2-3-3-3-6-2Zm-252 186c-7 2-9 5-18 25l-10 11-3 3c-6 7-8 10-9 18l-2 9c-1 3 0 4 6 5l7-1 5-2 6-4 10-9 2-2 10-13v-1c2-4 5-9 7-10l2-3-3-3-5-7 2-15c0-2-2-3-7-1Z"/>
  <path fill="#00703C" d="M896 1492c-2 2-12 7-19 9-3 1-6 2-7 4-11 14-12 15-19 16-5 1-8 5-8 11-1 4-2 5-8 11-4 4-8 7-10 7l-7 3-7 1-12-6c0-2-3-4-6-4s-3 0-3 4c-2 8-3 11-6 13l-4 2-4 2c-4 3-5 2-11-5-4-5-4-5-9-5l-8-2c-4-1-4-1-7 1-1 1-3 3-5 3-3 1-4 1-3 4l-2 4c-3 2-10 13-10 16l2 2 12 6 9 4 4 7c4 11 4 12-3 12-4 0-8 3-9 8s-6 17-9 19c-2 2-3 6-1 6l4-3c3-3 8-4 11-2 2 1 2 18 1 20l-11 4c-10 2-20 6-21 9-1 2 0 3 4 7 3 4 6 6 7 6l6 5c6 5 7 5 12 5s6 0 8 2c4 3 4 6-1 10s-5 6 0 7c4 1 6 3 6 6 0 2-1 2-7 4-12 4-17 9-15 16l-1 10c-5 18-4 17-2 20 2 2 2 3 1 6s0 5 3 10l11 16c3 2 6 2 9 0 4-4 8-3 13 2 3 3 6 6 9 7l6 7c1 2 2 3 6 5l6 1 6-3 8-4 7-3 6-4c2 0 1-3-4-7-4-5-4-5-3-8l3-12c2-6 7-8 13-4h7l4-2c2 0 9 7 12 11 2 2 2 2 4 1l6-9c4-7 5-8 8-9 5-1 7 0 10 5 4 5 6 5 12 1 4-2 6-3 10-3 5 0 5-1 8-5l6-6c2 0 6-3 8-5 2-3 5-5 6-5 3 0 8 5 13 12 5 6 6 8 9 9 7 1 8 3 5 8-2 6-1 7 3 5s8-13 10-28c0-6 2-7 10-7 6 0 6 0 9-4l5-5 4-7c2-3 3-6 2-7 0-4 2-7 5-8 3 0 4-1 4-3l-1-3-3-4c-3-7 0-13 7-14l3-3c0-3-13-24-17-27-3-3-10-7-25-15l-8-6c-5-4-6-9-6-20-1-7-2-9-7-9l-10-5-7-4-2-1c-1-2-1-3 2-5l4-7 2-4 4-3 5-4c2-3-3-7-8-7l-10-4-10-3c-4-1-5-1-9-10l-2-6 3-7 8-11c3-2 3-3 3-6l-2-11c-2-10-6-21-9-24-2-3-10-7-12-7l-4 3Zm171-339-1 5v6c-3 2-12 2-32 1l-23-1-8 3c-8 5-14 7-19 5-4-2-7-1-7 1-2 4-4 4-12 1-7-3-17-9-17-11l-11-6c-2 0-7 5-7 7l-3 3c-2 2-3 2-7 2-3-1-4 0-7 2l-3 4-2 3c-1 1-2 1-12-3-7-2-10-3-23 0-16 3-21 6-19 11l-2 7c-3 4-3 6-2 9 1 4 1 20-1 24-1 3-5 5-9 5l-5 2-5 1c-2 0-4 1-7 6l-4 7-2 3-2 2 6 6c4 4 8 8 8 10 2 4 5 4 7 1 3-3 5-2 7 4 1 3 6 11 9 13l5 1c4 0 5 1 8 4s6 6 8 6c4 2 6 6 9 14 0 1 2 5 5 7 6 7 6 11-2 16-4 3-7 7-7 11l-2 7c-1 3-2 6-1 7 0 2 4 4 9 4s8 3 8 10c1 5 3 9 8 14l7 7c2 3 4 4 7 5 6 1 10 3 14 9l6 8c2 2 3 6 3 8 1 2 2 4 6 7l9 9 6 8c4 5 8 5 16 2 6-3 11-4 13-1l3 1 1-1c1-1 2-2 5-2s5 1 7 4c6 5 10 4 12-5 2-10 12-21 19-21 3 0 5-2 7-8 1-3 2-5 5-7l5-4 2-2c3-2 5 0 5 5 1 5 3 7 9 7 4 0 5 0 7-4l2-4 3-4c3-3 4-3 11-2l10 1c2 2 2 2 2 7s1 6 7 6c4 0 6-2 6-6l1-6-1-4c-2-4-1-6 3-7l6-4c3-5 4-5 8-2 5 4 7 3 8-2 1-8 7-12 12-8l9 6c7 5 8 7 6 15-1 6 0 11 3 12 3 2 5 0 7-5 2-3 3-5 6-6 5-3 4-4-6-6-12-8-22-18-30-30-3-3-3-3-7-2-2 1-7 3-11 3l-12 3c-4 2-8 2-11 0-3-3-8-5-10-5l-1 3-1 7-3 8c-1 5-5 7-7 5-2-1-2-14 0-17s0-3-7-3c-4 0-7 0-9 2l-4 2-5-6c-2-5-3-5-6-6-6-1-7-3-7-6 0-5 2-6 9-4l9 2 6 3c4 3 13 3 18 0l8-3c4-1 5-1 11 1s7 2 13 1l15-3c15-6 21-5 27 4 5 7 17 18 19 18l9-3c5-3 6-3 8-2h6l-5-6c-16-19-30-40-41-63l-4-23c0-5 4-16 6-18l3-2c5 0 1-3-5-5-10-3-13-5-15-12-2-4-3-5-7-8-6-4-11-11-15-25-4-10-5-12-11-16-4-4-6-7-9-14-1-3-6-7-12-9l-8-5-6-4-6-2h-2Z"/>
  <path fill="#00703C" d="m879 853-6 6c-2 1-4 4-5 7l-9 12c-2 0-4 3-3 6l5 7c4 5 5 8 7 15 0 2 1 5 3 6 3 3 3 7-2 12-4 6-6 6-11 8-4 1-7 4-9 10l-5 7c-3 2-4 2-9 1-7 0-8 0-16 7-7 6-9 8-11 13 0 3-3 8-5 12l-4 9 7 9c7 7 7 7 13 8 8 1 10 2 8 5v9c1 3 1 3-1 5l-5 3c-4 1-7 4-7 7l2 9 2 7-3 6c-2 5-2 7-2 11 1 7 2 9 5 7l4-2 5-5c5-5 7-5 10-1l6 7c5 4 9 11 9 15l-2 9c-3 10-2 11 1 15s3 8 1 13c-2 4-1 5 9 14 9 7 10 9 12 17 1 7 2 7 9 3l5-2 2 2 8 4c6 1 9 0 14-6l8-7 6-4c1-2 2-2 8-2 10 1 20 5 24 10 4 4 6 4 9 0 3-3 5-4 7-1 1 3 5 3 7 0 3-3 6-2 8 2 1 4 3 6 7 4l3-4 5-3c16-2 33-1 49 2 2 0 3 0 4-3l1-5c0-3-1-4-11-6-8-2-18-6-20-8s-3-2-7 2l-4 4-9 3c-9 4-10 4-11-3 0-5 3-9 8-9l3 1 1-9v-9l-9-9c-8-10-8-11-11-23-3-11-7-19-13-24-6-6-6-8 1-9 5 0 6 0 6-4 0-5-2-6-9-5-5 1-7 2-9 4-2 3-3 4-9 4l-11 1c-4 0-4 0-4-2 0-4 4-7 17-11 11-4 15-6 15-8l-6-13-4-7c-2-4-2-4-5-4-5 1-6 0-5-5 0-4 2-7 6-11l2-3-2-3c-4-6-7-14-7-21 0-4 0-7-2-9s-5-11-5-13l2-6c3-6 3-15 0-22-3-5-4-11-5-18-1-6-5-8-12-8h-6l-6-7-9-11-7-10-6-6c0-2-2-2-7-3h-6l-2 4Zm270 540-6 5c-3 1-4 2-5 4-1 5-2 7-6 9-3 1-6 3-7 5-3 6-9 8-20 8l-10-2-2-6c-1-4-2-4-5-5-3 0-4 1-6 6 0 2-2 4-4 6-3 2-4 2-14 1l-13-1c-2-2-4 0-4 3 0 5-3 7-9 8-7 1-10 4-12 10-4 15-13 22-24 19-4-1-23-2-44-1-4 0-7 0-9-2-4-2-5-3-5-6l-2-5-4-7-7-8c-2-1-5-6-7-10-5-10-10-16-12-16l-6 3c-5 4-8 10-8 19l-2 11c-2 5-2 7-1 12l1 11c0 7 6 17 11 18 10 3 16 10 18 17 0 2 1 6 3 8 1 2 2 4 2 9l2 8c2 3 1 15-3 19-8 8-9 13-4 18 4 3 15 8 18 8 4 0 11 2 13 4l3 8c1 5 1 5-1 10-3 6-3 6-7 6-4 1-4 1-5 4 0 2 0 3 4 5l4 3 7 4c7 4 8 7 6 16-1 6-1 7 1 10 1 3 13 11 15 11l11 6 10 7 7 10 13 21c2 2 1 3-3 9-3 4-4 6-4 13l-3 13-4 8c0 2-2 4-4 5-3 2-3 3-2 5l3 6c3 3 8 11 8 13 0 1-1 2-5 3l-5 3c-1 3 2 12 4 14 3 2 10 3 12 1l1-5c0-4 1-5 3-7 3-3 15-9 20-9l8-2c6 0 8 1 8 7 0 3 0 3 2 2 1-1 2-7 0-7-2-1-4-8-3-10l3-3 8-6 14-9 11-7v-5c-1-2-2-5-1-6 0-2 6-6 13-8 2 0 6-3 9-6l5-6-1-5c-1-5-1-6 4-9 4-1 9-7 13-14 3-4 3-5 2-8l-4-6-5-7-6-6-5-4c-1-1-2-15-1-18 0-3 7-6 13-6l11-2c4-2 7-2 11-1 10 1 20 0 29-3l9 1c6 2 8 0 7-4l2-6c2-3 4-4 15-7l13-5c2-2 1-6-5-14-5-6-8-8-12-10-6-2-7-2-13 0h-6v-6l20-30 21-21c4-2 7-5 7-7 4-9 1-28-6-42l-4-8-5-10-6-12c-2-8-7-14-14-18l-8-4c-2-2-8-1-10 1-2 1-3 3-3 6-1 6-3 9-7 12-5 3-8 2-15-6-6-7-7-9-8-14v-9c0-3-1-7-3-7l-3 2Z"/>
  <path fill="#28A197" d="m1091 1746-10 9-8 6 2 2 1 6c0 7-10 20-16 20l-3-3c-2-5-8-11-10-11-7 0-13 4-13 9 0 7-8 12-22 13l-9 1c-3 2-5-1-5-7l-1-8-4-12c0-1 10-6 10-8s-4-7-6-8l-9 6h-10l-3 2-2 12c-5 19-5 18-10 22-3 2-6 4-7 8l-3 6-3 7c-3 6-4 11-2 11s2 4 0 9c-3 6-3 15 1 23l2 8-2 11c-1 10 0 11 6 18 5 4 6 7 7 14l5 9c3 5 3 6 3 16 0 3 0 3 2 4 3 0 4 3 4 9 0 4 0 5-3 8-1 2-2 3-1 5 0 3-2 13-4 15l-6 3-8 5c-4 4-4 9-1 17l3 15c0 9 3 14 7 18 2 2 2 2-4 10-7 9-9 11-13 11-3 0-4-1-8-4-2-4-5-5-8-6l-9-3h-12c-2 3 1 6 5 7 8 2 10 3 11 6v8c-3 2-2 5 2 9s5 9 3 12c-1 2 0 2 2 3 2 0 5 3 7 5l5 4 7 3 7 4 6-4 9-5c7-2 9-3 7-6-3-3-1-11 3-10l3 1 5 4c3 3 4 3 4 1 0-3-3-7-12-14-11-8-16-16-11-17l5 1c5 2 6 2 11 0l4-3 3 3c1 1 3 3 3 5 0 4 2 4 5 1 3-4 8-4 11-1 2 2 2 4-3 9-3 3-3 3-2 4 3 2 10 3 13 2l41-2c9 0 21 2 24 4 2 2 1 7-1 10s-2 4 1 2l10-2c10 0 18-3 20-6 2-4 5-5 10-2 4 2 7 2 17 1 13-2 15-3 17-7 2-3 3-4 7-2l6 2c24 4 47 10 70 19 5 4 8 2 16-10l8-7c4-3 19-7 29-9 6-1 15-6 21-12 8-8 14-11 19-11l13 1 9 1 1-7c0-9 2-16 7-22 6-7 12-10 18-10 4 0 6-1 8-3l8-4 21-11c4-4 4-6 3-16-1-6-2-11-5-16-4-11-4-13 2-15 8-3 12-7 6-8l-11 1-19 2c-10 1-18 3-31 7-15 5-18 6-20 5l-8-2-8-1-5 1c-4 2-6 1-7-3v-3h-9c-7 0-10-1-12-2s-3-1-10 2c-14 6-16 4-7-10 2-4 5-6 8-6 4 0 15-5 15-7-1-1-14-4-16-3l-2 4-1 4c-2 1-23 2-36 1l-8-1-1 3-2 8c0 11-13 31-22 33-5 1-7 1-9-5-2-3-2-4-5-4-2 0-3 1-5 3-2 4-6 8-8 8l-8-6-10-6c-4 0-6-2-6-4l-2 2c-2 2-4 2-7 2-6 0-8-5-4-11l1-4-11-7c-7-3-10-5-11-7l-6-5c-4-3-5-5-3-9 2-1 2-4 2-9l1-9c1-2 1-3-1-4-3-2-3-5-6-14l-3-14c-1-5-7-11-10-11-4 0-9-4-12-10l-3-6c-3-2-4-3-4-6 0-4 21 0 26-2 0-2-1-5-4-8-4-4-10-2-14-7s-5-9-3-13l4-12c2-9 2-10 0-11-2-3-1-7 4-12 4-5 4-5 0-17-2-7-3-8-8-3Zm-93 363c-1 6-11 12-14 8h-5c0 2 4 6 11 10l14 9c4 4 5 4 9 3 5 0 6-2 9-9l6-10c4-4 5-5 2-9s-4-3-6 1-5 5-9 2l-6-1c-6 0-7 0-7-4s-3-4-4 0Z"/>
  <path fill="#00703C" d="m925 1769-2 7c-1 9-3 15-5 15-1 1-8-2-9-4s-13-1-17 1l-9 2-7 2-8 2-9 3c-7 5-17 4-19-2-1-4-3-5-7-3l-6 1h-4l3 9c5 10 4 14-2 17l-8 4c-3 1-6 4-9 4l-7 5-4 6c-2 2-3 3-3 13 0 11 1 15 3 15l8-4c9-5 16-15 15-19 0-5 3-13 6-14l7 1 6 2c1-1 5 2 5 4l-6 13c-2 4-4 6-7 8l-6 5-11 11-7 8-6 9-8 13c-4 8-4 8-2 9l7 8-2 4-2 2-6-3-10-3c-8 2-13 6-19 15l-8 10c-7 4-9 10-7 14 2 5 1 8-2 11-2 2-2 2-1 7s1 6-1 10v9c2 6 0 7-5 7-8-2-11-4-13-9l-2-4-5 1-11 3c-5 2-8 2-12 2-7 0-22-3-23-4l-8-5c-7-3-7-3-15-3-7 1-11 1-19-1-10-2-11-2-25-1l-50 8c-2 2-4 12-4 15 0 5 2 5 7 3l7-1c4 1 9 5 9 7s-4 5-7 5c-7 0-9 1-11 6s-6 8-10 6c-3-1-3-1-8 4l-7 6c-5 1-11-1-15-3l-7-4c-3-1-3-1-5 1-3 4-6 13-6 18l-1 7-1 10c-1 18-1 17-8 24-4 4-8 8-8 10-2 3-4 5-8 7-7 3-8 5-12 13-4 11-5 12-17 13-6 1-7 2-2 4 5 1 7 3 7 7s-3 6-8 6c-3-1-5-1-7 1l-7 2-3-4c0-5-1-5-4-2-1 1-2 4-2 9-1 7-3 12-8 18l-6 4c-4 0-5 0-6 5-2 7-8 15-13 17l-6 5c-3 5-11 11-17 12-4 2-6 3-9 7-5 7-11 8-15 1l-4-3-6 4c-5 4-12 8-15 8-4 0-5 3-5 12l1 10 8-1c6-3 6-3 7-8 1-6 2-7 7-10 3-1 3-1 10 2l9 4 19 9 8 15 2 7c2 2 4 1 4-1l2-4c1-2 2-2 4-1s4 0 6-1l4-4c0-3-7-5-13-4-5 0-5 0-8-4l-4-5c0-1 10-5 17-6 6-1 9-5 6-9l-1-9 4-10 3-4 3-5c3-4 10-3 15 2l6 6c2 4 3 4 6 0 2-2 3-2 7-2h5l2-8 3-10c1-2 6-6 12-8 5-2 6-3 7-6s3-3 7-3c5 1 8 4 8 8 0 7 6 8 19 1 9-4 11-5 14-3s6 0 7-4c1-5 3-6 8-7 4 0 5-1 4-3l1-10c3-4 7-4 11-1l2 2 3-2c3-4 3-4 5-1 3 2 1 14-3 19l-2 4 6 1c6 0 7 0 7 5 0 3 0 3 6 3l7 2 6 2h5c2 1 2 1 2 4-1 5 1 6 6 3 4-2 7 0 9 4 1 4 1 4 7 4l10 2 4 2 2-5 6-8 5-5-6-5-7-9c-1-4-1-4 1-6 2-1 9-1 12 1 2 1 3 0 3-3l3-4 7-13c0-2-5-4-9-4-3 0-6-2-6-5 1-1 5-3 17-6 2 0 4-1 6-5 3-6 3-7 0-18-2-8-2-9-1-11h5c2 1 3 4 6 10 5 11 7 11 20-2l8-5 55-13c6 0 20 5 33 12l13 6 17 12c2 2 2 2 4 0 6-4 8-4 25-4 14 1 17 1 28 5l15 3c2-1 4 0 5 1 2 2 5 1 7-3 1-3 1-3-8-6s-13-8-12-15c1-3 2-5 5-7 6-4 11-3 17 1 5 3 5 3 8 2l9-2 6-3-2-12c-2-8-3-11-6-13-2-3-3-4-2-6 1-4 0-6-8-16-5-7-7-10-7-12 0-5 4-8 11-10 9-2 12-1 20 2 14 7 18 8 19 7v-22l-2-10-2-7c0-6-1-9-4-10-4-3-5-4-2-8l6-5 7-6c2-3 4-4 7-5 3 0 4-1 5-11 1-6 0-7-2-13l-3-10 2-7c0-5-9-24-14-26-7-4-7-5-8-17v-26l-1-11c-2-4-2-5-1-8l3-12 6-23c1-2 1-3-2-7-2-5-2-6-1-9 2-5 1-6-4-12l-6-8c-2-3-4-4-6-1Zm389-228h-16c-22 0-23 1-27 20-2 9-3 10-7 14-3 3-5 5-5 7l2 7c2 6 2 10-1 10s-6-3-9-7c-3-7-5-10-6-8l-1 4c0 3-13 13-18 13l-7 2-6 2c-1 0-2 1-2 3-1 4-4 9-7 11l-12 3-15 2c-8 2-12 2-20 0l-8-2-6 2-9 3-3 2c-1 5 0 6 4 6 5 1 7 3 7 8 0 3 1 6 4 10l3 6 2 4v9l-6 10c-10 11-11 12-11 18s-1 6-5 9c-4 2-5 3-5 7-1 6-2 9-6 10-4 2-3 2-6-1l-4-2c-2 2 0 24 3 30 2 3 1 9-1 12l-3 11-2 11-1 7-1 7c-2 4-2 8-1 8l4 1c3 1 17 15 19 18 0 3-2 6-6 8-3 2-10 3-14 2h-3c-1 3 3 6 9 7l8 4c4 4 10 18 10 22l1 4 8 1c3 1 5 0 10-1l11-4 6-2 8-7c6-5 8-6 9-5l8 1 11 1c5 0 5 1 7 5l4 8c1 3 2 3 6 3l13-2c6-1 11-2 12-1 3 1 7 5 11 11l5 6c3 1 4 7 3 11s-1 4-5 4-9 3-8 5l6 1 8 2c6 4 8 2 10-5l3-5 4-8c2-5 4-7 7-5 4 2 17 4 22 4l6-1v-4l4-7c3-2 3-4-2-5-2 0-4 0-7 2-6 2-16 2-17 0-2-4 3-13 8-13 10 0 25 1 28 3 6 3 16 3 18 1l1-3-1-7-1-7c0-1-4 0-7 2-7 2-7 2-8 5 0 3-1 4-4 4-5 0-9-2-12-6l-5-4c-3-2-4-7-1-10 2-2 3-2 8-2l10-1c2-1 3-1 3-6 1-5 1-5 4-6 7 0 7 0 9-4l3-6c1-1 2-3 1-6 0-4 2-5 6-2 5 3 9 5 12 5s10 7 10 9c-2 4-2 6 0 6l5-2 6-3c4-2 7-5 7-7l-3-3c-3-1-3-2-4-7 0-6 0-6 4-9l3-2-3-1h-8c-8 0-15-1-16-4-2-5 1-7 9-10l8-3-1-2c-2-2-5-10-4-11 1-4 6-3 11 1l7 4c6 2 7 3 10 7 2 4 5 6 6 4l-2-4-4-8-3-8c-3-5-3-9 2-13 5-5 7-4 9 5 1 7 4 15 7 15l2-3 3-6 2-8c0-6 1-7 7-7 4 0 6-1 6-2s-1-2-5-2c-5-1-7-3-6-8 1-3 4-5 9-5 9 0 9 0 9-14 0-11 0-12-2-15-3-4-4-9-2-11l6-2 6-2c3-2 6-12 6-18v-6l-5-2c-6-3-5-5 1-9 5-3 6-5 4-8l-3-7-1-6-4 1c-5 2-7 1-8-1-2-3 1-9 8-12l5-4c0-3-7-18-10-23l-7-7-9-7c-25-21-34-27-40-29l-19-3c-16-2-28-3-34-1h-20c-5-2-5-2-6-1Z"/>
  <path fill="#28A197" d="m1174 1873-5 4-11 4-22 6v16l1 15 4 4c3 4 20 14 27 16 4 1 8 4 15 11l6 4 5-3c2-2 4-3 7-3 5 0 11 2 15 5 2 2 2 2 3-1l5-7c2-2 3-3 2-6 0-2 0-5 2-8l3-9v-7c-2-3-7-4-11-1l-5 1-6 2-5 2-3-2-8-4-8-1-2-3c0-5 2-5 17-5 14 1 15 1 20-2 5-2 6-2 10-1 9 2 9 2 11-1l5-4c3-1 3-3 0-6l-3-5c-1-3-1-3-7-3-7 0-9 1-11 6-2 3-3 4-5 2l-5-3c-5-1-11-6-13-11-3-7-4-8-12-8-5 0-7 1-9 2l-7 4Z"/>
  <path fill="#28A197" d="M528 2260h116v80H528z"/>
  <path fill="#14896A" d="M644 2260h80v80h-80z"/>
  <path fill="#00703C" d="M724 2260h80v80h-80z"/>
  <path fill="#FD0" d="M804 2260h80v80h-80z"/>
  <path fill="#FAAA1C" d="M884 2260h80v80h-80z"/>
  <path fill="#F47738" d="M964 2260h80v80h-80z"/>
  <path fill="#D4351C" d="M1044 2260h80v80h-80z"/>
  <path fill="#A12A18" d="M1124 2260h80v80h-80z"/>
  <path fill="#6F2114" d="M1204 2260h80v80h-80z"/>
  <path fill="#0B0C0C" d="M1284 2260h210v80h-210z"/>
  <text fill="#FFF" font-family="GDS Transport, arial, sans-serif" font-size="32" font-weight="bold" transform="translate(528 2260)">
    <tspan x="24" y="48">LOW</tspan>
  </text>
  <text fill="#FFF" font-family="GDS Transport, arial, sans-serif" font-size="32" font-weight="bold" transform="translate(528 2260)">
    <tspan x="776" y="48">VERY HIGH</tspan>
  </text>
</svg>
